<?xml version="1.0" encoding="utf-8"?>
<!-- Generator: Adobe Illustrator 25.4.1, SVG Export Plug-In . SVG Version: 6.00 Build 0)  -->
<svg version="1.1" id="Layer_1" xmlns="http://www.w3.org/2000/svg" xmlns:xlink="http://www.w3.org/1999/xlink" x="0px" y="0px"
	 viewBox="0 0 1920 400" style="enable-background:new 0 0 1920 400;" xml:space="preserve">
<style type="text/css">
	.st0{fill:#F6F6F6;}
	.st1{fill:none;stroke:#FFBEE0;stroke-width:5;stroke-linecap:round;}
</style>
<path class="st0" d="M1920.8,106.8v291.3H0.8V77c185.5-33.1,378.3-49.3,561.3-46.4c146.5,2.3,291.2,24.7,435.8,47h0
	c69.9,10.8,139.7,21.6,209.8,30.1C1446.8,136.8,1682.8,131,1920.8,106.8z"/>
<path class="st0" d="M0.8,77v321.2H0.4V77C0.5,77,0.7,77,0.8,77z"/>
<path class="st1" d="M-0.8,105.9c32.6-5.1,65.5-9.7,98.7-13.7c231.2-27.9,468.4-17.9,698.5,16.2
	c348.1,51.5,683.7,179.5,1028.7,249.3c31.8,6.4,63.6,12.3,95.6,17.5"/>
</svg>
