<svg width="386" height="336" viewBox="0 0 386 336" fill="none" xmlns="http://www.w3.org/2000/svg">
<path d="M28.6313 283.619C38.9868 284.918 37.1732 293.331 32.1417 293.331C30.4516 293.278 28.8452 292.583 27.6484 291.389C25.8347 289.833 25.1912 286.205 21.0489 286.205C10.9508 286.205 8.75101 299.076 8.75101 306.788C8.69251 319.998 17.7492 332.05 35.7456 332.05C53.742 332.05 63.922 319.869 63.922 303.172C63.922 266.395 11.3604 285.176 11.3604 254.483C11.3604 241.156 23.1435 235.329 35.6988 235.329C39.9331 235.313 44.1431 235.969 48.1723 237.271L48.301 237.142C50.5424 237.937 52.708 238.932 54.7717 240.114C54.8463 240.183 54.9402 240.228 55.0408 240.243C56.849 241.307 58.5026 242.614 59.9553 244.128C63.3253 248.141 60.9967 251.64 58.1417 251.64C57.3828 251.611 56.6456 251.378 56.0075 250.967C55.3693 250.555 54.8536 249.979 54.5143 249.3C52.7006 246.445 53.2272 242.7 47.9148 239.939C44.3051 238.608 40.4936 237.907 36.6466 237.868C27.976 237.868 20.265 241.624 19.8203 250.563C19.048 273.474 75.6232 259.924 75.7519 302.212C75.7519 320.595 60.7276 335.093 35.9679 335.093C15.2569 334.964 1.53139 324.222 0.759113 308.297C-0.247188 290.862 13.4783 281.735 28.6313 283.619Z" fill="white"/>
<path d="M113.172 257.724H114.237C130.291 258.239 140.389 269.121 140.389 284.263C140.428 284.828 140.343 285.394 140.14 285.923C139.937 286.452 139.621 286.93 139.215 287.324C138.808 287.719 138.32 288.02 137.786 288.206C137.251 288.393 136.682 288.461 136.118 288.405H94.7898C94.9186 307.7 105.918 315.318 117.022 315.072C124.523 314.943 131.262 312.1 135.276 305.372C135.457 305.004 135.732 304.69 136.073 304.462C136.414 304.234 136.809 304.1 137.218 304.073C137.548 304.106 137.862 304.227 138.13 304.423C138.397 304.619 138.607 304.883 138.738 305.187C138.869 305.491 138.917 305.825 138.876 306.153C138.835 306.482 138.707 306.794 138.505 307.057C134.621 314.171 125.435 318.828 114.951 318.828C100.442 318.828 85.1715 310.637 84.9141 288.534C84.6917 270.408 95.4334 257.724 113.172 257.724ZM95.0473 284.777H124.955C129.87 284.777 131.812 282.578 131.812 278.307C131.812 269.765 125.728 261.48 114.261 261.48C101.647 261.843 95.8195 271.064 95.0473 284.777Z" fill="white"/>
<path d="M99.5753 224.716C102.302 224.716 104.888 226.658 105.426 231.315C106.069 237.914 111.276 240.372 118.297 240.372C131.508 240.372 151.318 231.444 158.83 225.874C159.3 225.492 159.9 225.308 160.503 225.359C160.717 225.345 160.932 225.374 161.135 225.446C161.337 225.517 161.523 225.629 161.681 225.775C161.838 225.92 161.965 226.097 162.052 226.293C162.139 226.489 162.186 226.701 162.188 226.915V309.257C162.188 316.113 165.944 315.107 170.379 315.727C170.524 315.736 170.665 315.773 170.795 315.836C170.925 315.899 171.042 315.987 171.138 316.095C171.234 316.203 171.308 316.329 171.356 316.466C171.403 316.602 171.423 316.747 171.415 316.892C171.406 317.036 171.369 317.177 171.306 317.308C171.243 317.438 171.155 317.554 171.047 317.65C170.939 317.747 170.813 317.821 170.676 317.868C170.54 317.915 170.395 317.936 170.25 317.927H145.28C144.988 317.944 144.702 317.845 144.483 317.65C144.265 317.456 144.133 317.183 144.116 316.892C144.099 316.6 144.198 316.313 144.392 316.095C144.587 315.877 144.86 315.744 145.151 315.727C149.551 315.072 153.342 316.113 153.342 309.257V240.372C153.342 237.013 152.301 235.586 150.358 235.586C149.183 235.626 148.034 235.939 147 236.499H147.129C136.773 240.898 123.949 244.783 113.465 244.783C104.408 244.783 97.083 241.799 94.4385 234.03C92.5897 228.203 96.0767 224.716 99.5753 224.716Z" fill="white"/>
<path d="M202.37 257.596H203.541C219.466 258.111 229.564 268.993 229.564 284.134C229.6 284.699 229.514 285.264 229.31 285.792C229.107 286.32 228.791 286.797 228.385 287.191C227.979 287.585 227.492 287.886 226.958 288.073C226.424 288.261 225.856 288.33 225.293 288.276H184.117C184.117 307.572 195.256 315.189 206.349 314.943C224.603 314.943 232.243 297.731 240.657 282.063V272.094C240.657 265.073 239.884 265.237 233.636 265.237C232.337 265.237 231.694 263.423 233.765 262.896C238.643 261.662 243.407 260.014 248.005 257.97C248.649 257.584 249.561 257.713 249.561 258.626V268.326C254.604 262.112 260.946 257.713 269.886 257.713C281.014 257.327 291.896 263.154 291.896 274.937V309.374C291.896 316.23 295.652 315.06 300.087 315.844C301.257 316.102 301.257 318.044 299.958 318.044H291.018C283.904 318.044 282.991 314.288 282.991 309.631V274.949C282.991 267.05 276.907 263.166 269.921 262.639C239.884 262.639 243.769 318.699 206.349 318.699H204.149C189.651 318.699 174.51 310.509 174.112 288.405C174.018 270.28 184.643 257.596 202.37 257.596ZM214.153 284.649C219.08 284.649 221.022 282.449 221.022 278.178C221.151 269.636 214.937 261.352 203.541 261.352C190.856 261.738 185.029 270.935 184.245 284.649H214.153ZM232.536 315.856C236.947 315.072 240.727 316.242 240.727 309.385V295.402C242.669 291.646 244.483 287.89 246.425 284.392C246.606 284.061 246.867 283.78 247.183 283.576C247.5 283.371 247.863 283.25 248.239 283.221C249.023 283.221 249.667 283.865 249.667 285.164V309.374C249.667 316.23 253.423 315.06 257.857 315.844C259.027 316.102 259.027 318.044 257.729 318.044H232.665C231.378 318.009 231.378 316.113 232.536 315.856Z" fill="white"/>
<path d="M334.301 257.596H335.389C351.443 258.111 361.542 269.121 361.542 284.134C361.566 284.713 361.468 285.29 361.254 285.828C361.04 286.366 360.714 286.852 360.299 287.256C359.883 287.659 359.387 287.97 358.843 288.168C358.299 288.366 357.719 288.447 357.142 288.405H315.919C316.047 306.916 328.614 315.318 342.2 315.318C349.71 315.29 357.032 312.963 363.18 308.648H363.308C380.263 295.063 381.82 273.697 371.499 258.941C367.357 253.091 371.113 248.715 375.127 248.715C376.087 248.738 377.025 249.013 377.846 249.512C378.667 250.011 379.343 250.716 379.807 251.558C392.491 273.568 381.621 301.007 365.953 311.632C359.482 316.675 350.414 319.401 341.228 319.401C323.875 319.401 306.394 309.818 306.125 288.452C305.821 270.409 316.574 257.596 334.301 257.596ZM346.084 284.778C351.011 284.778 352.824 282.437 352.953 278.307C352.953 269.636 346.868 261.352 335.343 261.352C322.787 261.738 316.96 270.935 316.047 284.754L346.084 284.778Z" fill="white"/>
<path d="M204.793 117.1C212.492 113.157 219.653 108.687 226.803 104.229C229.933 102.143 232.784 99.6653 235.286 96.8569C237.189 94.5897 239.654 92.8626 242.435 91.8488C245.22 90.9595 247.572 92.5274 247.408 95.2772C247.391 95.6406 247.295 95.9959 247.127 96.3186C246.554 97.3834 245.864 98.4014 245.337 99.5013C243.851 102.532 240.949 103.983 238.387 105.773C235.017 108.113 231.682 110.582 228.136 112.677C226.199 113.768 224.083 114.509 221.888 114.865C216.751 115.778 211.568 116.386 206.396 117.1C205.862 117.131 205.327 117.131 204.793 117.1V117.1ZM204.418 115.579C211.012 112.738 217.288 109.208 223.14 105.048C224.18 104.451 225.053 103.602 225.679 102.579C227.132 98.8627 229.132 95.3842 231.612 92.2583C233.121 90.5265 232.454 88.6192 230.208 88.0576C228.998 87.7398 227.721 87.7856 226.537 88.1894C225.352 88.5931 224.313 89.3368 223.55 90.3276C220.764 93.569 218.189 96.9849 215.839 100.554C213.147 104.83 209.553 108.464 205.307 111.203C202.031 113.309 198.673 115.275 195.478 117.229C198.526 117.145 201.542 116.589 204.418 115.579V115.579ZM190.962 0.907249C188.585 0.909569 186.261 1.61692 184.286 2.93982C182.311 4.26272 180.773 6.14173 179.866 8.33913C178.959 10.5365 178.724 12.9536 179.191 15.2846C179.657 17.6155 180.805 19.7556 182.489 21.4341C184.172 23.1126 186.316 24.2542 188.648 24.7142C190.98 25.1743 193.396 24.9323 195.591 24.0189C197.786 23.1054 199.66 21.5615 200.978 19.5824C202.295 17.6034 202.995 15.2782 202.991 12.901C202.989 11.3234 202.677 9.7616 202.071 8.30487C201.466 6.84813 200.579 5.525 199.462 4.41113C198.345 3.29726 197.019 2.41448 195.561 1.81326C194.102 1.21204 192.539 0.904173 190.962 0.907249V0.907249ZM152.184 38.0351C154.302 37.7478 156.296 36.8722 157.941 35.5076C155.708 35.2286 153.63 34.2217 152.026 32.6428C150.423 31.0638 149.385 29.0006 149.072 26.7723C148.759 24.544 149.189 22.2746 150.295 20.315C151.401 18.3555 153.122 16.8149 155.191 15.9316C153.551 15.2201 151.769 14.898 149.983 14.9904C148.198 15.0827 146.458 15.5871 144.9 16.464C143.342 17.3409 142.008 18.5665 141.003 20.0448C139.997 21.5232 139.348 23.2142 139.105 24.9855C138.862 26.7567 139.032 28.5601 139.603 30.2546C140.173 31.949 141.128 33.4884 142.392 34.7522C143.657 36.0161 145.197 36.9702 146.891 37.5397C148.586 38.1092 150.39 38.2788 152.161 38.0351H152.184ZM243.02 28.6741C243.297 26.6345 243.025 24.5581 242.233 22.6582C241.442 20.7583 240.159 19.1033 238.516 17.8632C236.873 16.6231 234.93 15.8426 232.886 15.6019C230.842 15.3611 228.77 15.6687 226.884 16.4932C228.952 17.3702 230.674 18.9027 231.785 20.8548C232.896 22.8068 233.334 25.07 233.032 27.2956C232.73 29.5212 231.705 31.5858 230.114 33.1712C228.523 34.7567 226.455 35.775 224.228 36.0693C225.824 37.3703 227.737 38.2231 229.772 38.5399C231.806 38.8568 233.888 38.6263 235.804 37.8721C237.719 37.118 239.4 35.8674 240.672 34.2488C241.945 32.6302 242.763 30.7021 243.044 28.6624L243.02 28.6741ZM135.089 61.0045C135.824 58.9556 136.037 56.7558 135.709 54.6039C135.604 55.0135 135.487 55.423 135.346 55.774C134.833 57.197 134.044 58.5048 133.026 59.623C132.007 60.7412 130.778 61.6478 129.409 62.2911C128.04 62.9343 126.558 63.3016 125.047 63.372C123.536 63.4423 122.026 63.2144 120.603 62.7011C119.18 62.1879 117.872 61.3994 116.754 60.3808C115.636 59.3621 114.729 58.1331 114.086 56.7641C113.442 55.395 113.075 53.9126 113.005 52.4016C112.934 50.8906 113.162 49.3806 113.676 47.9577C113.816 47.5598 113.992 47.162 114.167 46.7875C112.535 48.2288 111.295 50.0606 110.563 52.1116C109.39 55.3701 109.559 58.9611 111.034 62.0947C112.509 65.2283 115.168 67.6478 118.426 68.8209C121.685 69.9939 125.276 69.8245 128.409 68.3499C131.543 66.8752 133.962 64.2162 135.136 60.9577L135.089 61.0045ZM263.591 69.0783C266.833 67.8935 269.473 65.4724 270.934 62.345C272.395 59.2176 272.556 55.6389 271.384 52.3924C270.644 50.3432 269.396 48.5153 267.757 47.0801C267.95 47.4585 268.118 47.8494 268.26 48.2502C269.304 51.1208 269.165 54.2886 267.874 57.0569C266.582 59.8251 264.244 61.9669 261.374 63.0112C258.503 64.0555 255.335 63.9167 252.567 62.6253C249.799 61.3339 247.657 58.9957 246.613 56.1251C246.47 55.742 246.349 55.3513 246.25 54.955C245.913 57.1897 246.163 59.4735 246.976 61.5824C247.788 63.6913 249.135 65.5527 250.883 66.9841C252.632 68.4155 254.723 69.3677 256.951 69.7471C259.179 70.1265 261.467 69.9203 263.591 69.1485V69.0783ZM280.394 121.511C279.153 128.293 276.996 134.875 273.982 141.076C271.061 147.261 267.416 153.079 263.123 158.405C254.565 168.894 243.771 177.337 231.53 183.118C228.488 184.616 225.398 185.786 222.239 186.956C220.648 187.471 219.068 188.021 217.465 188.465C215.862 188.91 214.247 189.378 212.621 189.717C192.95 194.347 172.297 192.288 153.928 183.867C141.535 178.304 130.592 169.96 121.948 159.482C120.884 158.148 119.795 156.825 118.824 155.433C118.333 154.731 117.806 154.052 117.326 153.35L115.922 151.197L115.22 150.132L114.565 148.962L113.254 146.751C112.447 145.241 111.616 143.743 110.914 142.187C110.212 140.631 109.44 139.098 108.808 137.507C108.492 136.711 108.141 135.927 107.837 135.167L106.959 132.733C106.655 131.925 106.397 131.106 106.152 130.287C105.906 129.468 105.637 128.637 105.403 127.818C105.169 126.999 105.017 126.133 104.818 125.291C104.619 124.448 104.42 123.617 104.28 122.775C102.861 116.014 102.233 109.111 102.407 102.204C102.602 95.2874 103.575 88.4144 105.309 81.7155C103.434 88.3948 102.316 95.2635 101.974 102.193C101.66 109.141 102.15 116.103 103.437 122.939C104.139 126.344 104.993 129.714 105.953 133.06L106.713 135.564C106.983 136.395 107.287 137.203 107.579 138.033C108.129 139.683 108.749 141.286 109.475 142.913C112.181 149.378 115.607 155.517 119.69 161.213C127.974 172.797 138.874 182.263 151.505 188.84C157.862 192.148 164.602 194.659 171.573 196.317C173.316 196.715 175.083 197.159 176.827 197.487L179.483 197.955L182.151 198.306C185.721 198.708 189.311 198.911 192.904 198.914C207.326 198.87 221.516 195.277 234.221 188.454C240.523 185.101 246.387 180.982 251.679 176.191C256.931 171.436 261.622 166.097 265.662 160.277C269.638 154.486 272.954 148.27 275.55 141.743C276.24 140.14 276.79 138.478 277.363 136.828C277.656 136.009 277.937 135.19 278.171 134.347L278.908 131.843C279.341 130.147 279.785 128.473 280.16 126.777C280.534 125.08 280.956 123.383 281.33 121.687C283.688 107.938 282.818 93.8302 278.791 80.4752C282.488 93.8465 283.036 107.892 280.394 121.511V121.511ZM255.669 101.327C255.256 100.871 254.736 100.526 254.156 100.322C253.575 100.118 252.954 100.061 252.346 100.157C250.334 100.486 248.369 101.06 246.496 101.865C241.664 104.463 237.119 107.562 232.934 111.109C230.057 113.562 226.69 115.373 223.058 116.421C216.576 117.971 209.936 118.756 203.271 118.761C200.851 118.669 198.427 118.747 196.017 118.995C191.336 119.744 187.51 122.377 183.906 125.302C182.736 126.309 181.566 127.397 180.396 128.45C180.694 127.77 181.088 127.135 181.566 126.566C182.917 124.777 184.403 123.095 186.012 121.535C191.149 117.135 196.485 112.958 201.657 108.581C203.085 107.372 204.351 105.984 205.424 104.451C205.922 103.748 206.199 102.913 206.22 102.052C206.241 101.192 206.005 100.344 205.541 99.6183C205.117 98.9408 204.498 98.4073 203.765 98.0878C203.032 97.7684 202.22 97.6778 201.434 97.8281C198.775 98.0722 196.225 99.0081 194.039 100.543C189.663 103.386 185.451 106.51 181.039 109.284C178.061 111.192 174.93 112.852 171.678 114.245C167.887 115.824 163.827 116.761 159.977 118.282C154.521 120.438 149.563 123.687 145.409 127.83C139.605 133.596 136.187 141.338 135.838 149.512C135.789 152.015 135.395 154.5 134.668 156.896C134.153 158.3 133.205 160.406 132.046 162.828L131.064 164.887L129.695 167.672C137.285 174.858 145.873 180.911 155.191 185.645C155.753 183.656 156.361 181.608 156.923 179.654L157.543 177.49C158.421 174.482 159.181 171.885 159.556 170.399C160.281 167.602 161.206 164.841 163.429 162.805C165.597 160.73 167.879 158.777 170.262 156.954C173.955 154.386 178.004 152.372 182.28 150.975C185.053 149.968 187.838 149.021 190.529 147.827C195.315 145.698 199.246 142.269 203.4 139.157C206.045 136.997 208.871 135.071 211.848 133.4C216.213 131.223 220.8 129.491 225.363 127.76C230.111 126.145 234.471 123.558 238.164 120.166C241.429 116.983 245.29 114.409 248.801 111.589C250.989 109.857 253.2 108.078 255.295 106.288C257.226 104.603 257.272 102.906 255.669 101.327ZM190.985 49.315C189.523 58.91 188.352 60.4077 180.782 62.2448C188.352 64.0936 189.523 65.5796 190.985 75.1161C192.436 65.5211 193.618 64.0351 201.189 62.2448C193.618 60.4077 192.436 58.91 190.985 49.315ZM212.948 55.0018C211.778 55.2709 210.608 55.5751 209.438 55.9028C208.84 56.0263 208.253 56.1985 207.683 56.4176C207.109 56.6585 206.573 56.9817 206.091 57.3771V57.459C206.716 57.4723 207.339 57.3934 207.94 57.225C208.525 57.0547 209.093 56.8315 209.637 56.558C210.807 56.0783 211.872 55.5868 212.983 55.072L212.948 55.0018ZM209.66 48.6363C208.615 49.2682 207.585 49.9235 206.571 50.6021C206.036 50.8963 205.531 51.2411 205.062 51.6318C204.607 52.042 204.213 52.5148 203.892 53.036V53.1062C204.49 52.9273 205.058 52.6591 205.577 52.3105C206.076 51.9594 206.545 51.568 206.981 51.1404C207.905 50.3447 208.818 49.5256 209.707 48.6948L209.66 48.6363ZM204.57 43.6165C203.775 44.5409 202.991 45.477 202.23 46.4248C201.824 46.88 201.452 47.365 201.118 47.8758C200.799 48.4092 200.555 48.984 200.393 49.5841H200.463C200.979 49.2273 201.44 48.7977 201.832 48.3087C202.195 47.8197 202.52 47.3033 202.803 46.7641C203.435 45.7227 204.044 44.6696 204.641 43.6048L204.57 43.6165ZM198.181 40.3987C197.702 41.5688 197.257 42.657 196.824 43.8037C196.573 44.3587 196.369 44.9342 196.216 45.5238C196.072 46.129 196.017 46.7517 196.052 47.3726H196.134C196.512 46.8775 196.816 46.3295 197.035 45.7461C197.24 45.1723 197.393 44.5809 197.491 43.9793C197.772 42.7935 198.029 41.6 198.263 40.3987H198.181ZM190.997 33.378C190.915 35.5895 190.857 37.7893 190.821 40.0009C190.821 41.171 190.716 42.2124 190.821 43.324C190.887 44.4341 191.04 45.5374 191.278 46.6237H191.36C191.561 45.5271 191.671 44.4155 191.687 43.3006C191.687 42.2007 191.605 41.1008 191.535 39.9892C191.418 37.7893 191.278 35.5817 191.114 33.3663L190.997 33.378ZM184.046 40.4923C184.327 41.6624 184.631 42.8326 184.947 44.0027C185.071 44.6008 185.243 45.1878 185.462 45.7578C185.708 46.3298 186.031 46.8653 186.422 47.3492H186.504C186.521 46.7254 186.446 46.1025 186.281 45.5004C186.102 44.9172 185.875 44.3498 185.603 43.8037C185.135 42.6336 184.643 41.5688 184.128 40.4572L184.046 40.4923ZM177.693 43.7803C178.325 44.8217 178.98 45.8515 179.647 46.8695C179.945 47.4018 180.29 47.9069 180.677 48.3789C181.089 48.8309 181.562 49.2246 182.081 49.549H182.151C181.971 48.953 181.707 48.3856 181.367 47.8641C181.019 47.3624 180.627 46.8925 180.197 46.4599C179.401 45.5355 178.594 44.6228 177.763 43.7335L177.693 43.7803ZM172.661 48.8821C173.586 49.6777 174.522 50.4617 175.481 51.2223C175.927 51.6519 176.409 52.0433 176.92 52.3924C177.459 52.7097 178.037 52.9537 178.641 53.1179V53.0477C178.308 52.5072 177.898 52.0183 177.424 51.5967C176.938 51.2284 176.421 50.9035 175.879 50.6255C174.849 49.9937 173.796 49.3852 172.72 48.7884L172.661 48.8821ZM169.455 55.2709C170.625 55.7506 171.713 56.1953 172.848 56.6282C173.405 56.876 173.98 57.0795 174.568 57.2367C175.178 57.3807 175.804 57.4358 176.429 57.4005V57.3186C175.932 56.9428 175.385 56.6394 174.803 56.4176C174.224 56.2136 173.629 56.0609 173.024 55.9613C171.854 55.6804 170.684 55.423 169.514 55.189L169.455 55.2709ZM219.77 61.9523C217.559 61.8353 215.359 61.7299 213.147 61.648C212.047 61.648 210.936 61.5076 209.836 61.5661C208.724 61.6071 207.616 61.7363 206.524 61.9523V62.0459C207.616 62.2619 208.724 62.391 209.836 62.432C210.936 62.432 212.047 62.432 213.147 62.3384C215.359 62.2682 217.559 62.1629 219.77 62.0459V61.9523ZM212.808 69.0432C211.638 68.54 210.561 68.072 209.438 67.6273C208.886 67.3683 208.315 67.1531 207.73 66.9838C207.122 66.828 206.496 66.761 205.869 66.7848V66.8668C206.362 67.2513 206.905 67.5663 207.484 67.8029C208.055 68.0091 208.642 68.1695 209.239 68.2826C210.409 68.5868 211.579 68.8677 212.808 69.1251V69.0432ZM209.66 75.4671C208.748 74.648 207.835 73.8524 206.887 73.1269C206.445 72.7016 205.972 72.3104 205.471 71.9568C204.939 71.6301 204.364 71.3781 203.763 71.2079V71.2781C204.11 71.7936 204.528 72.2583 205.003 72.6588C205.486 73.0357 205.998 73.3723 206.536 73.6651C207.566 74.3048 208.607 74.9367 209.66 75.5607V75.4671ZM204.687 80.6039C204.079 79.5508 203.447 78.5094 202.792 77.4797C202.499 76.9458 202.162 76.437 201.785 75.9586C201.388 75.4767 200.923 75.0549 200.405 74.7065L200.334 74.765C200.506 75.3639 200.762 75.9353 201.095 76.4617C201.445 76.9694 201.836 77.4469 202.265 77.8893C203.045 78.8254 203.825 79.7498 204.605 80.6625L204.687 80.6039ZM198.404 83.9856C198.146 82.8155 197.866 81.6453 197.561 80.4752C197.448 79.8784 197.288 79.2915 197.082 78.7201C196.862 78.0901 196.546 77.498 196.145 76.9649H196.064C196.045 77.5912 196.112 78.217 196.262 78.8254C196.432 79.4108 196.647 79.9821 196.906 80.5337C197.351 81.7039 197.83 82.7804 198.322 83.9037L198.404 83.9856ZM191.383 91.1818C191.5 88.9703 191.605 86.7588 191.676 84.5589C191.676 83.3888 191.828 82.3474 191.769 81.2358C191.727 80.1236 191.598 79.0165 191.383 77.9244H191.289C191.075 79.0165 190.946 80.1236 190.903 81.2358C190.845 82.4059 190.903 83.4473 190.985 84.5589C191.067 86.7588 191.172 88.9703 191.289 91.1818H191.383ZM184.292 84.1611C184.784 82.991 185.263 81.9262 185.708 80.7912C185.969 80.2403 186.184 79.6689 186.352 79.0828C186.507 78.4795 186.574 77.8567 186.551 77.234H186.469C186.08 77.724 185.765 78.268 185.532 78.8488C185.325 79.4197 185.164 80.0067 185.053 80.6039C184.749 81.7741 184.468 82.9442 184.21 84.1143L184.292 84.1611ZM177.868 81.0252C178.648 80.1125 179.428 79.1881 180.208 78.252C180.634 77.8063 181.025 77.3291 181.379 76.8245C181.705 76.2961 181.957 75.7251 182.127 75.1278H182.057C181.542 75.4795 181.077 75.9009 180.677 76.3798C180.3 76.8583 179.963 77.367 179.67 77.901C179.031 78.9307 178.399 79.9721 177.775 81.0252H177.868ZM172.743 76.0522C173.796 75.432 174.838 74.8002 175.867 74.1449C176.401 73.856 176.91 73.5234 177.388 73.1503C177.851 72.7428 178.257 72.2743 178.594 71.7578V71.6876C177.998 71.8669 177.427 72.1225 176.897 72.4482C176.39 72.7981 175.912 73.1895 175.469 73.6183C174.533 74.3984 173.609 75.1785 172.696 75.9586L172.743 76.0522ZM169.385 69.7218C170.555 69.4761 171.725 69.1953 172.895 68.8911C173.496 68.7794 174.087 68.619 174.662 68.4113C175.241 68.1747 175.784 67.8598 176.277 67.4752V67.3933C175.654 67.3699 175.032 67.4369 174.428 67.5922C173.841 67.7564 173.269 67.9717 172.72 68.2358C171.55 68.6804 170.461 69.1485 169.35 69.6399L169.385 69.7218ZM162.189 62.7011C164.4 62.8299 166.612 62.9235 168.812 63.0054C169.923 63.0054 171.023 63.1458 172.135 63.0873C173.247 63.0447 174.354 62.9156 175.446 62.7011V62.6192C174.354 62.4048 173.247 62.2757 172.135 62.2331C171.023 62.2331 169.923 62.2331 168.812 62.315C166.612 62.3969 164.4 62.4905 162.189 62.6192V62.7011Z" fill="white"/>
</svg>
