<?xml version="1.0" encoding="utf-8"?>
<!-- Generator: Adobe Illustrator 25.4.1, SVG Export Plug-In . SVG Version: 6.00 Build 0)  -->
<svg version="1.1" id="Layer_1" xmlns="http://www.w3.org/2000/svg" xmlns:xlink="http://www.w3.org/1999/xlink" x="0px" y="0px"
	 viewBox="0 0 1920 380" style="enable-background:new 0 0 1920 380;" xml:space="preserve">
<style type="text/css">
	.st0{fill:#FDBDDF;}
	.st1{fill:none;stroke:#FFFFFF;stroke-width:5;stroke-linecap:round;}
</style>
<path class="st0" d="M1920,0v196.5c-189.9-19.8-387.9-20.4-573.2-1c-136.9,14.3-270.5,47.3-404,80.2c-32.2,8-64.5,15.9-96.8,23.6
	c-32.3,7.7-64.6,15.1-97,22C545.4,364.6,341.8,380,135.6,380c-45.1,0-90.3-0.7-135.6-2.1V0H1920z"/>
<path class="st1" d="M-0.1,261c272.8,75.3,561,62.7,839.4,6.4C1184.3,197.6,1519.9,69.6,1868,18.1c17.3-2.6,34.6-5,52-7.3"/>
</svg>
